<svg width="60" height="60" viewBox="0 0 60 60" fill="none" xmlns="http://www.w3.org/2000/svg">
<rect width="60" height="60" fill="#06092B"/>
<path d="M10.2756 46V19.8182H27.9176V24.3821H15.8111V30.6207H27.0099V35.1847H15.8111V41.4361H27.9688V46H10.2756Z" fill="#FAFAFA"/>
<path d="M49.2414 32.6203L48.193 38.3695C48.1065 38.8445 47.8561 39.274 47.4855 39.5834C47.1149 39.8927 46.6476 40.0623 46.1648 40.0625H36.1961L36.5742 42.125H45.8125C46.2204 42.125 46.6192 42.246 46.9584 42.4726C47.2975 42.6992 47.5619 43.0213 47.718 43.3982C47.8741 43.7751 47.915 44.1898 47.8354 44.5899C47.7558 44.99 47.5594 45.3575 47.2709 45.6459C46.9825 45.9344 46.615 46.1308 46.2149 46.2104C45.8148 46.29 45.4001 46.2491 45.0232 46.093C44.6463 45.9369 44.3242 45.6725 44.0976 45.3334C43.871 44.9942 43.75 44.5954 43.75 44.1875C43.7501 43.9531 43.7908 43.7205 43.8703 43.5H38.8172C38.8967 43.7205 38.9374 43.9531 38.9375 44.1875C38.9381 44.5203 38.8582 44.8482 38.7046 45.1434C38.551 45.4386 38.3282 45.6923 38.0553 45.8827C37.7824 46.0732 37.4675 46.1947 37.1375 46.2371C36.8074 46.2794 36.472 46.2413 36.1599 46.1259C35.8477 46.0105 35.5682 45.8213 35.345 45.5745C35.1219 45.3276 34.9617 45.0304 34.8783 44.7083C34.7949 44.3861 34.7907 44.0486 34.866 43.7244C34.9414 43.4003 35.094 43.0992 35.3109 42.8469L32.9305 29.75H31.375C31.1927 29.75 31.0178 29.6776 30.8889 29.5486C30.7599 29.4197 30.6875 29.2448 30.6875 29.0625C30.6875 28.8802 30.7599 28.7053 30.8889 28.5764C31.0178 28.4474 31.1927 28.375 31.375 28.375H32.9305C33.2514 28.3757 33.562 28.4886 33.8084 28.6942C34.0548 28.8998 34.2215 29.1852 34.2797 29.5008L34.7008 31.8125H48.5625C48.6629 31.8127 48.7619 31.8352 48.8526 31.8783C48.9432 31.9214 49.0232 31.984 49.0867 32.0617C49.1532 32.137 49.2017 32.2264 49.2285 32.3232C49.2553 32.42 49.2597 32.5216 49.2414 32.6203Z" fill="#FAFAFA"/>
</svg>
