<svg width="100" height="34" viewBox="0 0 100 34" fill="none" xmlns="http://www.w3.org/2000/svg">
<g clip-path="url(#clip0_302_9)">
<path d="M13.4013 3.81818V14H11.5419L7.11222 7.59162H7.03764V14H4.88494V3.81818H6.77415L11.169 10.2216H11.2585V3.81818H13.4013ZM18.6202 14.1491C17.8347 14.1491 17.1586 13.9901 16.5918 13.6719C16.0283 13.3504 15.5942 12.8963 15.2892 12.3097C14.9843 11.7197 14.8319 11.022 14.8319 10.2166C14.8319 9.43111 14.9843 8.74171 15.2892 8.14844C15.5942 7.55516 16.0234 7.0928 16.5769 6.76136C17.1337 6.42992 17.7866 6.2642 18.5357 6.2642C19.0395 6.2642 19.5085 6.34541 19.9426 6.50781C20.3801 6.6669 20.7613 6.9072 21.0861 7.22869C21.4142 7.55019 21.6694 7.95455 21.8517 8.44176C22.034 8.92566 22.1252 9.49242 22.1252 10.142V10.7237H15.677V9.41122H20.1316C20.1316 9.1063 20.0653 8.83617 19.9327 8.60085C19.8001 8.36553 19.6162 8.18158 19.3809 8.04901C19.1489 7.91312 18.8787 7.84517 18.5705 7.84517C18.249 7.84517 17.964 7.91974 17.7154 8.06889C17.4701 8.21473 17.2779 8.41193 17.1387 8.66051C16.9995 8.90578 16.9282 9.17921 16.9249 9.48082V10.7287C16.9249 11.1065 16.9945 11.433 17.1337 11.7081C17.2762 11.9832 17.4767 12.1953 17.7353 12.3445C17.9938 12.4936 18.3004 12.5682 18.655 12.5682C18.8903 12.5682 19.1058 12.535 19.3013 12.4688C19.4969 12.4025 19.6642 12.303 19.8034 12.1705C19.9426 12.0379 20.0487 11.8755 20.1216 11.6832L22.0804 11.8125C21.981 12.2831 21.7772 12.6941 21.4689 13.0455C21.164 13.3935 20.7696 13.6652 20.2857 13.8608C19.8051 14.053 19.2499 14.1491 18.6202 14.1491ZM25.1404 6.36364L26.5424 9.03338L27.9792 6.36364H30.1518L27.9395 10.1818L30.2115 14H28.0488L26.5424 11.3601L25.0609 14H22.8734L25.1404 10.1818L22.9529 6.36364H25.1404ZM35.4714 6.36364V7.95455H30.8727V6.36364H35.4714ZM31.9167 4.53409H34.0346V11.6534C34.0346 11.849 34.0645 12.0014 34.1241 12.1108C34.1838 12.2169 34.2666 12.2914 34.3727 12.3345C34.4821 12.3776 34.608 12.3991 34.7505 12.3991C34.85 12.3991 34.9494 12.3909 35.0488 12.3743C35.1483 12.3544 35.2245 12.3395 35.2775 12.3295L35.6106 13.9055C35.5046 13.9387 35.3554 13.9768 35.1632 14.0199C34.9709 14.0663 34.7373 14.0945 34.4622 14.1044C33.9518 14.1243 33.5043 14.0563 33.1199 13.9006C32.7387 13.7448 32.4421 13.5028 32.2299 13.1747C32.0178 12.8466 31.9134 12.4323 31.9167 11.9318V4.53409ZM4.88494 32V21.8182H11.7457V23.593H7.03764V26.0192H11.3928V27.794H7.03764V30.2251H11.7656V32H4.88494ZM18.1752 26.9787V28.6591H13.5318V26.9787H18.1752ZM23.4302 32.1491C22.648 32.1491 21.9752 31.9834 21.4118 31.652C20.8516 31.3172 20.4208 30.8532 20.1191 30.2599C19.8208 29.6667 19.6717 28.9839 19.6717 28.2116C19.6717 27.4295 19.8225 26.7434 20.1241 26.1534C20.429 25.5601 20.8616 25.0978 21.4217 24.7663C21.9818 24.4316 22.648 24.2642 23.4203 24.2642C24.0865 24.2642 24.6698 24.3852 25.1703 24.6271C25.6708 24.8691 26.0668 25.2088 26.3585 25.6463C26.6502 26.0838 26.8109 26.5975 26.8407 27.1875H24.8422C24.7858 26.8063 24.6367 26.4998 24.3947 26.2678C24.1561 26.0324 23.8429 25.9148 23.4551 25.9148C23.127 25.9148 22.8403 26.0043 22.595 26.1832C22.353 26.3589 22.1641 26.6158 22.0282 26.9538C21.8923 27.2919 21.8244 27.7012 21.8244 28.1818C21.8244 28.669 21.8907 29.0833 22.0233 29.4247C22.1592 29.7661 22.3497 30.0263 22.595 30.2053C22.8403 30.3842 23.127 30.4737 23.4551 30.4737C23.697 30.4737 23.9141 30.424 24.1064 30.3246C24.3019 30.2251 24.4627 30.081 24.5886 29.892C24.7179 29.6998 24.8024 29.4695 24.8422 29.201H26.8407C26.8076 29.7843 26.6485 30.2981 26.3635 30.7422C26.0817 31.183 25.6923 31.5277 25.1951 31.7763C24.698 32.0249 24.1097 32.1491 23.4302 32.1491ZM31.647 32.1491C30.8748 32.1491 30.2069 31.9851 29.6435 31.657C29.0833 31.3255 28.6508 30.8648 28.3459 30.2749C28.041 29.6816 27.8885 28.9938 27.8885 28.2116C27.8885 27.4228 28.041 26.7334 28.3459 26.1435C28.6508 25.5502 29.0833 25.0895 29.6435 24.7614C30.2069 24.4299 30.8748 24.2642 31.647 24.2642C32.4193 24.2642 33.0855 24.4299 33.6456 24.7614C34.209 25.0895 34.6432 25.5502 34.9482 26.1435C35.2531 26.7334 35.4055 27.4228 35.4055 28.2116C35.4055 28.9938 35.2531 29.6816 34.9482 30.2749C34.6432 30.8648 34.209 31.3255 33.6456 31.657C33.0855 31.9851 32.4193 32.1491 31.647 32.1491ZM31.657 30.5085C32.0083 30.5085 32.3016 30.4091 32.5369 30.2102C32.7723 30.008 32.9496 29.733 33.0689 29.3849C33.1915 29.0369 33.2528 28.6409 33.2528 28.1967C33.2528 27.7526 33.1915 27.3565 33.0689 27.0085C32.9496 26.6605 32.7723 26.3854 32.5369 26.1832C32.3016 25.9811 32.0083 25.88 31.657 25.88C31.3023 25.88 31.004 25.9811 30.7621 26.1832C30.5234 26.3854 30.3428 26.6605 30.2202 27.0085C30.1009 27.3565 30.0412 27.7526 30.0412 28.1967C30.0412 28.6409 30.1009 29.0369 30.2202 29.3849C30.3428 29.733 30.5234 30.008 30.7621 30.2102C31.004 30.4091 31.3023 30.5085 31.657 30.5085ZM36.7827 32V24.3636H38.8011V25.7109H38.8906C39.0497 25.2635 39.3149 24.9105 39.6861 24.652C40.0573 24.3935 40.5014 24.2642 41.0185 24.2642C41.5421 24.2642 41.9879 24.3951 42.3558 24.657C42.7237 24.9155 42.969 25.2668 43.0916 25.7109H43.1712C43.3269 25.2734 43.6087 24.9238 44.0163 24.6619C44.4273 24.3968 44.9129 24.2642 45.473 24.2642C46.1856 24.2642 46.764 24.4912 47.2081 24.9453C47.6555 25.3961 47.8793 26.0357 47.8793 26.8643V32H45.7663V27.282C45.7663 26.8577 45.6536 26.5395 45.4283 26.3274C45.2029 26.1153 44.9212 26.0092 44.5831 26.0092C44.1986 26.0092 43.8987 26.1319 43.6832 26.3771C43.4678 26.6191 43.3601 26.9389 43.3601 27.3366V32H41.3068V27.2372C41.3068 26.8627 41.1991 26.5644 40.9837 26.3423C40.7715 26.1203 40.4915 26.0092 40.1435 26.0092C39.9081 26.0092 39.696 26.0689 39.5071 26.1882C39.3215 26.3042 39.174 26.4683 39.0646 26.6804C38.9553 26.8892 38.9006 27.1345 38.9006 27.4162V32H36.7827ZM49.5522 32V24.3636H51.5707V25.7109H51.6602C51.8192 25.2635 52.0844 24.9105 52.4556 24.652C52.8268 24.3935 53.271 24.2642 53.788 24.2642C54.3117 24.2642 54.7575 24.3951 55.1254 24.657C55.4933 24.9155 55.7385 25.2668 55.8612 25.7109H55.9407C56.0965 25.2734 56.3782 24.9238 56.7859 24.6619C57.1969 24.3968 57.6824 24.2642 58.2425 24.2642C58.9551 24.2642 59.5335 24.4912 59.9776 24.9453C60.4251 25.3961 60.6488 26.0357 60.6488 26.8643V32H58.5359V27.282C58.5359 26.8577 58.4232 26.5395 58.1978 26.3274C57.9724 26.1153 57.6907 26.0092 57.3526 26.0092C56.9682 26.0092 56.6682 26.1319 56.4528 26.3771C56.2373 26.6191 56.1296 26.9389 56.1296 27.3366V32H54.0763V27.2372C54.0763 26.8627 53.9686 26.5644 53.7532 26.3423C53.5411 26.1203 53.261 26.0092 52.913 26.0092C52.6777 26.0092 52.4656 26.0689 52.2766 26.1882C52.091 26.3042 51.9435 26.4683 51.8342 26.6804C51.7248 26.8892 51.6701 27.1345 51.6701 27.4162V32H49.5522ZM65.8018 32.1491C65.0163 32.1491 64.3402 31.9901 63.7734 31.6719C63.21 31.3504 62.7758 30.8963 62.4709 30.3097C62.166 29.7197 62.0135 29.022 62.0135 28.2166C62.0135 27.4311 62.166 26.7417 62.4709 26.1484C62.7758 25.5552 63.205 25.0928 63.7585 24.7614C64.3153 24.4299 64.9683 24.2642 65.7173 24.2642C66.2211 24.2642 66.6901 24.3454 67.1243 24.5078C67.5618 24.6669 67.9429 24.9072 68.2678 25.2287C68.5959 25.5502 68.8511 25.9545 69.0334 26.4418C69.2157 26.9257 69.3068 27.4924 69.3068 28.142V28.7237H62.8587V27.4112H67.3132C67.3132 27.1063 67.2469 26.8362 67.1143 26.6009C66.9818 26.3655 66.7978 26.1816 66.5625 26.049C66.3305 25.9131 66.0604 25.8452 65.7521 25.8452C65.4306 25.8452 65.1456 25.9197 64.897 26.0689C64.6518 26.2147 64.4595 26.4119 64.3203 26.6605C64.1811 26.9058 64.1098 27.1792 64.1065 27.4808V28.7287C64.1065 29.1065 64.1761 29.433 64.3153 29.7081C64.4579 29.9832 64.6584 30.1953 64.9169 30.3445C65.1754 30.4936 65.482 30.5682 65.8366 30.5682C66.072 30.5682 66.2874 30.535 66.483 30.4688C66.6785 30.4025 66.8459 30.303 66.9851 30.1705C67.1243 30.0379 67.2304 29.8755 67.3033 29.6832L69.2621 29.8125C69.1626 30.2831 68.9588 30.6941 68.6506 31.0455C68.3456 31.3935 67.9512 31.6652 67.4673 31.8608C66.9867 32.053 66.4316 32.1491 65.8018 32.1491ZM70.6889 32V24.3636H72.7422V25.696H72.8217C72.9609 25.2221 73.1946 24.8641 73.5227 24.6222C73.8509 24.3769 74.2287 24.2543 74.6562 24.2543C74.7623 24.2543 74.8767 24.2609 74.9993 24.2741C75.1219 24.2874 75.2296 24.3056 75.3224 24.3288V26.2081C75.223 26.1783 75.0855 26.1518 74.9098 26.1286C74.7341 26.1054 74.5734 26.0938 74.4276 26.0938C74.116 26.0938 73.8376 26.1617 73.5923 26.2976C73.3504 26.4302 73.1581 26.6158 73.0156 26.8544C72.8764 27.093 72.8068 27.3681 72.8068 27.6797V32H70.6889ZM79.5123 32.1491C78.7301 32.1491 78.0572 31.9834 77.4938 31.652C76.9337 31.3172 76.5028 30.8532 76.2012 30.2599C75.9029 29.6667 75.7537 28.9839 75.7537 28.2116C75.7537 27.4295 75.9045 26.7434 76.2061 26.1534C76.5111 25.5601 76.9436 25.0978 77.5037 24.7663C78.0639 24.4316 78.7301 24.2642 79.5023 24.2642C80.1685 24.2642 80.7518 24.3852 81.2523 24.6271C81.7528 24.8691 82.1489 25.2088 82.4405 25.6463C82.7322 26.0838 82.8929 26.5975 82.9228 27.1875H80.9242C80.8678 26.8063 80.7187 26.4998 80.4767 26.2678C80.2381 26.0324 79.9249 25.9148 79.5371 25.9148C79.209 25.9148 78.9223 26.0043 78.677 26.1832C78.4351 26.3589 78.2462 26.6158 78.1103 26.9538C77.9744 27.2919 77.9064 27.7012 77.9064 28.1818C77.9064 28.669 77.9727 29.0833 78.1053 29.4247C78.2412 29.7661 78.4318 30.0263 78.677 30.2053C78.9223 30.3842 79.209 30.4737 79.5371 30.4737C79.7791 30.4737 79.9962 30.424 80.1884 30.3246C80.3839 30.2251 80.5447 30.081 80.6706 29.892C80.7999 29.6998 80.8844 29.4695 80.9242 29.201H82.9228C82.8896 29.7843 82.7305 30.2981 82.4455 30.7422C82.1638 31.183 81.7743 31.5277 81.2772 31.7763C80.78 32.0249 80.1917 32.1491 79.5123 32.1491ZM87.7589 32.1491C86.9734 32.1491 86.2972 31.9901 85.7305 31.6719C85.167 31.3504 84.7328 30.8963 84.4279 30.3097C84.123 29.7197 83.9705 29.022 83.9705 28.2166C83.9705 27.4311 84.123 26.7417 84.4279 26.1484C84.7328 25.5552 85.1621 25.0928 85.7156 24.7614C86.2724 24.4299 86.9253 24.2642 87.6744 24.2642C88.1781 24.2642 88.6471 24.3454 89.0813 24.5078C89.5188 24.6669 89.9 24.9072 90.2248 25.2287C90.5529 25.5502 90.8081 25.9545 90.9904 26.4418C91.1727 26.9257 91.2638 27.4924 91.2638 28.142V28.7237H84.8157V27.4112H89.2702C89.2702 27.1063 89.204 26.8362 89.0714 26.6009C88.9388 26.3655 88.7549 26.1816 88.5195 26.049C88.2875 25.9131 88.0174 25.8452 87.7092 25.8452C87.3877 25.8452 87.1026 25.9197 86.854 26.0689C86.6088 26.2147 86.4165 26.4119 86.2773 26.6605C86.1381 26.9058 86.0669 27.1792 86.0636 27.4808V28.7287C86.0636 29.1065 86.1332 29.433 86.2724 29.7081C86.4149 29.9832 86.6154 30.1953 86.8739 30.3445C87.1325 30.4936 87.439 30.5682 87.7937 30.5682C88.029 30.5682 88.2444 30.535 88.44 30.4688C88.6355 30.4025 88.8029 30.303 88.9421 30.1705C89.0813 30.0379 89.1874 29.8755 89.2603 29.6832L91.2191 29.8125C91.1197 30.2831 90.9158 30.6941 90.6076 31.0455C90.3027 31.3935 89.9083 31.6652 89.4244 31.8608C88.9438 32.053 88.3886 32.1491 87.7589 32.1491Z" fill="white"/>
</g>
<defs>
<clipPath id="clip0_302_9">
<rect width="100" height="34" fill="white"/>
</clipPath>
</defs>
</svg>
